<mxfile host="app.diagrams.net" modified="2024-05-23T17:59:47.626Z" agent="Mozilla/5.0 (Windows NT 10.0; Win64; x64; rv:126.0) Gecko/20100101 Firefox/126.0" etag="TIOzqkpIxVzN8nrUx0HI" version="24.4.6" type="github">
  <diagram name="Page-1" id="c7558073-3199-34d8-9f00-42111426c3f3">
    <mxGraphModel dx="2856" dy="887" grid="1" gridSize="10" guides="1" tooltips="1" connect="1" arrows="1" fold="1" page="1" pageScale="1" pageWidth="1169" pageHeight="827" background="none" math="0" shadow="0">
      <root>
        <mxCell id="0" />
        <mxCell id="1" parent="0" />
        <mxCell id="qjGqlxLeWbetl0XT6fP5-224" value="&lt;font style=&quot;font-size: 20px;&quot;&gt;merge fastq&lt;/font&gt;" style="text;html=1;align=center;verticalAlign=middle;whiteSpace=wrap;rounded=1;fontFamily=Maven Pro;fontSource=https%3A%2F%2Ffonts.googleapis.com%2Fcss%3Ffamily%3DMaven%2BPro;fontSize=20;" vertex="1" parent="1">
          <mxGeometry x="-80" y="245" width="80" height="30" as="geometry" />
        </mxCell>
        <mxCell id="qjGqlxLeWbetl0XT6fP5-227" value="&lt;div style=&quot;font-size: 18px;&quot;&gt;quality&lt;/div&gt;&lt;div style=&quot;font-size: 18px;&quot;&gt;filter q20+&lt;br style=&quot;font-size: 18px;&quot;&gt;&lt;/div&gt;" style="text;html=1;align=center;verticalAlign=middle;whiteSpace=wrap;rounded=1;fontStyle=0;fontFamily=Maven Pro;fontSource=https%3A%2F%2Ffonts.googleapis.com%2Fcss%3Ffamily%3DMaven%2BPro;fontSize=18;" vertex="1" parent="1">
          <mxGeometry x="90" y="260" width="120" height="30" as="geometry" />
        </mxCell>
        <mxCell id="qjGqlxLeWbetl0XT6fP5-229" value="nanoq" style="text;html=1;align=center;verticalAlign=middle;whiteSpace=wrap;rounded=1;fontFamily=Maven Pro;fontSource=https%3A%2F%2Ffonts.googleapis.com%2Fcss%3Ffamily%3DMaven%2BPro;fontColor=#008000;fontSize=20;" vertex="1" parent="1">
          <mxGeometry x="100" y="230" width="80" height="30" as="geometry" />
        </mxCell>
        <mxCell id="qjGqlxLeWbetl0XT6fP5-239" value="&lt;font style=&quot;font-size: 18px;&quot;&gt;Taxonomic classification of raw reads&lt;br style=&quot;font-size: 18px;&quot;&gt;&lt;/font&gt;" style="text;html=1;align=center;verticalAlign=middle;whiteSpace=wrap;rounded=1;fontStyle=0;fontFamily=Maven Pro;fontSource=https%3A%2F%2Ffonts.googleapis.com%2Fcss%3Ffamily%3DMaven%2BPro;fontSize=18;" vertex="1" parent="1">
          <mxGeometry x="335" y="550" width="130" height="30" as="geometry" />
        </mxCell>
        <mxCell id="qjGqlxLeWbetl0XT6fP5-240" value="kraken2" style="text;html=1;align=center;verticalAlign=middle;whiteSpace=wrap;rounded=1;fontFamily=Maven Pro;fontSource=https%3A%2F%2Ffonts.googleapis.com%2Fcss%3Ffamily%3DMaven%2BPro;fontColor=#008000;fontSize=20;" vertex="1" parent="1">
          <mxGeometry x="360" y="499" width="80" height="30" as="geometry" />
        </mxCell>
        <UserObject label="&#xa;&lt;font data-font-src=&quot;https://fonts.googleapis.com/css?family=Maven+Pro&quot; style=&quot;font-size: 18px;&quot;&gt;mapping&lt;/font&gt; reads to reference sequence&#xa;&#xa;" link="&#xa;&lt;font data-font-src=&quot;https://fonts.googleapis.com/css?family=Maven+Pro&quot; style=&quot;font-size: 18px;&quot;&gt;mapping&lt;/font&gt; reads to reference sequence&#xa;&#xa;" id="qjGqlxLeWbetl0XT6fP5-252">
          <mxCell style="text;html=1;align=center;verticalAlign=middle;whiteSpace=wrap;rounded=0;fontFamily=Maven Pro;fontSource=https%3A%2F%2Ffonts.googleapis.com%2Fcss%3Ffamily%3DMaven%2BPro;fontSize=18;" vertex="1" parent="1">
            <mxGeometry x="235" y="105" width="190" height="30" as="geometry" />
          </mxCell>
        </UserObject>
        <mxCell id="qjGqlxLeWbetl0XT6fP5-253" value="minimap2" style="text;html=1;align=center;verticalAlign=middle;whiteSpace=wrap;rounded=1;fontFamily=Maven Pro;fontSource=https%3A%2F%2Ffonts.googleapis.com%2Fcss%3Ffamily%3DMaven%2BPro;fontColor=#008000;fontSize=18;" vertex="1" parent="1">
          <mxGeometry x="285" y="55" width="80" height="30" as="geometry" />
        </mxCell>
        <mxCell id="qjGqlxLeWbetl0XT6fP5-254" value="samtools" style="text;html=1;align=center;verticalAlign=middle;whiteSpace=wrap;rounded=1;fontFamily=Maven Pro;fontSource=https%3A%2F%2Ffonts.googleapis.com%2Fcss%3Ffamily%3DMaven%2BPro;fontColor=#008000;fontSize=20;" vertex="1" parent="1">
          <mxGeometry x="450" y="55" width="80" height="30" as="geometry" />
        </mxCell>
        <mxCell id="qjGqlxLeWbetl0XT6fP5-255" value="&lt;div style=&quot;font-size: 18px;&quot;&gt;&lt;font data-font-src=&quot;https://fonts.googleapis.com/css?family=Maven+Pro&quot; style=&quot;font-size: 18px;&quot;&gt;mapping&lt;/font&gt; quality filter &lt;br style=&quot;font-size: 18px;&quot;&gt;&lt;/div&gt;" style="text;html=1;align=center;verticalAlign=middle;whiteSpace=wrap;rounded=0;fontSize=18;fontFamily=Maven Pro;fontSource=https%3A%2F%2Ffonts.googleapis.com%2Fcss%3Ffamily%3DMaven%2BPro;" vertex="1" parent="1">
          <mxGeometry x="435" y="90" width="120" height="30" as="geometry" />
        </mxCell>
        <mxCell id="qjGqlxLeWbetl0XT6fP5-256" value="samtools" style="text;html=1;align=center;verticalAlign=middle;whiteSpace=wrap;rounded=1;fontFamily=Maven Pro;fontSource=https%3A%2F%2Ffonts.googleapis.com%2Fcss%3Ffamily%3DMaven%2BPro;fontColor=#008000;fontSize=20;" vertex="1" parent="1">
          <mxGeometry x="700" y="55" width="80" height="30" as="geometry" />
        </mxCell>
        <mxCell id="qjGqlxLeWbetl0XT6fP5-257" value="&lt;div style=&quot;font-size: 18px;&quot;&gt;split bam file&lt;br style=&quot;font-size: 18px;&quot;&gt;&lt;/div&gt;&lt;div style=&quot;font-size: 18px;&quot;&gt;primer trimming&lt;/div&gt;" style="text;html=1;align=center;verticalAlign=middle;whiteSpace=wrap;rounded=0;fontSize=18;fontFamily=Maven Pro;fontSource=https%3A%2F%2Ffonts.googleapis.com%2Fcss%3Ffamily%3DMaven%2BPro;" vertex="1" parent="1">
          <mxGeometry x="650" y="90" width="180" height="30" as="geometry" />
        </mxCell>
        <mxCell id="qjGqlxLeWbetl0XT6fP5-258" value="samtools" style="text;html=1;align=center;verticalAlign=middle;whiteSpace=wrap;rounded=1;fontFamily=Maven Pro;fontSource=https%3A%2F%2Ffonts.googleapis.com%2Fcss%3Ffamily%3DMaven%2BPro;fontColor=#008000;fontSize=20;" vertex="1" parent="1">
          <mxGeometry x="890" y="60" width="80" height="20" as="geometry" />
        </mxCell>
        <mxCell id="qjGqlxLeWbetl0XT6fP5-259" value="&lt;div style=&quot;font-size: 18px;&quot;&gt;consensus sequence&lt;/div&gt;&lt;div style=&quot;font-size: 18px;&quot;&gt;generation&lt;/div&gt;" style="text;html=1;align=center;verticalAlign=middle;whiteSpace=wrap;rounded=0;fontSize=18;fontFamily=Maven Pro;fontSource=https%3A%2F%2Ffonts.googleapis.com%2Fcss%3Ffamily%3DMaven%2BPro;" vertex="1" parent="1">
          <mxGeometry x="830" y="90" width="200" height="30" as="geometry" />
        </mxCell>
        <mxCell id="qjGqlxLeWbetl0XT6fP5-260" value="abricate" style="text;html=1;align=center;verticalAlign=middle;whiteSpace=wrap;rounded=1;fontFamily=Maven Pro;fontSource=https%3A%2F%2Ffonts.googleapis.com%2Fcss%3Ffamily%3DMaven%2BPro;fontColor=#008000;fontSize=20;" vertex="1" parent="1">
          <mxGeometry x="1290" y="45" width="80" height="20" as="geometry" />
        </mxCell>
        <mxCell id="qjGqlxLeWbetl0XT6fP5-261" value="&lt;div style=&quot;font-size: 18px;&quot;&gt;consensus sequence&lt;/div&gt;&lt;div style=&quot;font-size: 18px;&quot;&gt;id&lt;br style=&quot;font-size: 18px;&quot;&gt;&lt;/div&gt;" style="text;html=1;align=center;verticalAlign=middle;whiteSpace=wrap;rounded=0;fontSize=18;fontFamily=Maven Pro;fontSource=https%3A%2F%2Ffonts.googleapis.com%2Fcss%3Ffamily%3DMaven%2BPro;" vertex="1" parent="1">
          <mxGeometry x="1220" y="75" width="240" height="30" as="geometry" />
        </mxCell>
        <mxCell id="qjGqlxLeWbetl0XT6fP5-263" value="Campylobacter fetus mlst typing" style="text;html=1;align=center;verticalAlign=middle;whiteSpace=wrap;rounded=0;fontSize=15;fontFamily=Maven Pro;fontSource=https%3A%2F%2Ffonts.googleapis.com%2Fcss%3Ffamily%3DMaven%2BPro;" vertex="1" parent="1">
          <mxGeometry x="1250" y="230" width="150" height="30" as="geometry" />
        </mxCell>
        <mxCell id="qjGqlxLeWbetl0XT6fP5-265" value="Visualization of kraken2 results&lt;font style=&quot;font-size: 18px;&quot;&gt;&lt;br style=&quot;font-size: 18px;&quot;&gt;&lt;/font&gt;" style="text;html=1;align=center;verticalAlign=middle;whiteSpace=wrap;rounded=1;fontStyle=0;fontFamily=Maven Pro;fontSource=https%3A%2F%2Ffonts.googleapis.com%2Fcss%3Ffamily%3DMaven%2BPro;fontSize=18;" vertex="1" parent="1">
          <mxGeometry x="584" y="540" width="210" height="30" as="geometry" />
        </mxCell>
        <mxCell id="qjGqlxLeWbetl0XT6fP5-266" value="krona" style="text;html=1;align=center;verticalAlign=middle;whiteSpace=wrap;rounded=1;fontFamily=Maven Pro;fontSource=https%3A%2F%2Ffonts.googleapis.com%2Fcss%3Ffamily%3DMaven%2BPro;fontColor=#008000;fontSize=20;" vertex="1" parent="1">
          <mxGeometry x="640" y="499" width="80" height="30" as="geometry" />
        </mxCell>
        <mxCell id="qjGqlxLeWbetl0XT6fP5-268" value="nanoplot" style="text;html=1;align=center;verticalAlign=middle;whiteSpace=wrap;rounded=1;fontFamily=Maven Pro;fontSource=https%3A%2F%2Ffonts.googleapis.com%2Fcss%3Ffamily%3DMaven%2BPro;fontColor=#008000;fontSize=20;" vertex="1" parent="1">
          <mxGeometry x="520" y="351.5" width="80" height="30" as="geometry" />
        </mxCell>
        <mxCell id="qjGqlxLeWbetl0XT6fP5-269" value="raw reads quality metrics and statistics" style="text;html=1;align=center;verticalAlign=middle;whiteSpace=wrap;rounded=0;fontSize=18;fontFamily=Maven Pro;fontSource=https%3A%2F%2Ffonts.googleapis.com%2Fcss%3Ffamily%3DMaven%2BPro;" vertex="1" parent="1">
          <mxGeometry x="470" y="388.5" width="210" height="30" as="geometry" />
        </mxCell>
        <mxCell id="qjGqlxLeWbetl0XT6fP5-270" value="multiqc" style="text;html=1;align=center;verticalAlign=middle;whiteSpace=wrap;rounded=1;fontFamily=Maven Pro;fontSource=https%3A%2F%2Ffonts.googleapis.com%2Fcss%3Ffamily%3DMaven%2BPro;fontColor=#008000;fontSize=20;" vertex="1" parent="1">
          <mxGeometry x="950" y="351.5" width="80" height="30" as="geometry" />
        </mxCell>
        <mxCell id="qjGqlxLeWbetl0XT6fP5-271" value="QC metrics report" style="text;html=1;align=center;verticalAlign=middle;whiteSpace=wrap;rounded=0;fontSize=18;fontFamily=Maven Pro;fontSource=https%3A%2F%2Ffonts.googleapis.com%2Fcss%3Ffamily%3DMaven%2BPro;" vertex="1" parent="1">
          <mxGeometry x="930" y="388.5" width="120" height="30" as="geometry" />
        </mxCell>
        <mxCell id="qjGqlxLeWbetl0XT6fP5-272" value="" style="group;rounded=1;fontSize=20;" vertex="1" connectable="0" parent="1">
          <mxGeometry x="-90" y="290" width="100" height="110" as="geometry" />
        </mxCell>
        <mxCell id="qjGqlxLeWbetl0XT6fP5-273" value="" style="shape=note;whiteSpace=wrap;html=1;backgroundOutline=1;darkOpacity=0.05;rounded=1;size=20;strokeWidth=2;fontSize=20;" vertex="1" parent="qjGqlxLeWbetl0XT6fP5-272">
          <mxGeometry x="5" width="80" height="100" as="geometry" />
        </mxCell>
        <mxCell id="qjGqlxLeWbetl0XT6fP5-274" value="&lt;font style=&quot;font-size: 20px;&quot; data-font-src=&quot;https://fonts.googleapis.com/css?family=Maven+Pro&quot; face=&quot;Maven Pro&quot; color=&quot;#ffffff&quot;&gt;&lt;b style=&quot;font-size: 20px;&quot;&gt;&lt;font style=&quot;font-size: 20px;&quot;&gt;Fastq&lt;/font&gt;&lt;/b&gt;&lt;/font&gt;" style="rounded=1;whiteSpace=wrap;html=1;strokeWidth=2;fillColor=#000000;fontSize=20;" vertex="1" parent="qjGqlxLeWbetl0XT6fP5-272">
          <mxGeometry y="40" width="90" height="40" as="geometry" />
        </mxCell>
        <mxCell id="qjGqlxLeWbetl0XT6fP5-275" value="" style="shape=note;whiteSpace=wrap;html=1;backgroundOutline=1;darkOpacity=0.05;rounded=1;size=20;strokeWidth=2;fontSize=20;" vertex="1" parent="qjGqlxLeWbetl0XT6fP5-272">
          <mxGeometry x="10" y="5" width="80" height="100" as="geometry" />
        </mxCell>
        <mxCell id="qjGqlxLeWbetl0XT6fP5-276" value="&lt;font style=&quot;font-size: 20px;&quot; data-font-src=&quot;https://fonts.googleapis.com/css?family=Maven+Pro&quot; face=&quot;Maven Pro&quot; color=&quot;#ffffff&quot;&gt;&lt;b style=&quot;font-size: 20px;&quot;&gt;&lt;font style=&quot;font-size: 20px;&quot;&gt;Fastq&lt;/font&gt;&lt;/b&gt;&lt;/font&gt;" style="rounded=1;whiteSpace=wrap;html=1;strokeWidth=2;fillColor=#000000;fontSize=20;" vertex="1" parent="qjGqlxLeWbetl0XT6fP5-272">
          <mxGeometry x="5" y="45" width="90" height="40" as="geometry" />
        </mxCell>
        <mxCell id="qjGqlxLeWbetl0XT6fP5-277" value="" style="shape=note;whiteSpace=wrap;html=1;backgroundOutline=1;darkOpacity=0.05;rounded=1;size=20;strokeWidth=2;fontSize=20;" vertex="1" parent="qjGqlxLeWbetl0XT6fP5-272">
          <mxGeometry x="15" y="10" width="80" height="100" as="geometry" />
        </mxCell>
        <mxCell id="qjGqlxLeWbetl0XT6fP5-278" value="&lt;font style=&quot;font-size: 20px;&quot; data-font-src=&quot;https://fonts.googleapis.com/css?family=Maven+Pro&quot; face=&quot;Maven Pro&quot; color=&quot;#ffffff&quot;&gt;&lt;b style=&quot;font-size: 20px;&quot;&gt;&lt;font style=&quot;font-size: 20px;&quot;&gt;Fastq&lt;/font&gt;&lt;/b&gt;&lt;/font&gt;" style="rounded=1;whiteSpace=wrap;html=1;strokeWidth=2;fillColor=#000000;fontSize=20;" vertex="1" parent="qjGqlxLeWbetl0XT6fP5-272">
          <mxGeometry x="10" y="50" width="90" height="40" as="geometry" />
        </mxCell>
        <mxCell id="qjGqlxLeWbetl0XT6fP5-436" style="edgeStyle=orthogonalEdgeStyle;rounded=1;orthogonalLoop=1;jettySize=auto;html=1;exitX=0;exitY=0;exitDx=30;exitDy=0;exitPerimeter=0;entryX=0.5;entryY=0;entryDx=0;entryDy=0;entryPerimeter=0;fontSize=20;" edge="1" parent="qjGqlxLeWbetl0XT6fP5-272" source="qjGqlxLeWbetl0XT6fP5-275" target="qjGqlxLeWbetl0XT6fP5-275">
          <mxGeometry relative="1" as="geometry" />
        </mxCell>
        <mxCell id="qjGqlxLeWbetl0XT6fP5-283" value="" style="group;rounded=1;fontFamily=Maven Pro;fontSource=https%3A%2F%2Ffonts.googleapis.com%2Fcss%3Ffamily%3DMaven%2BPro;fontSize=20;" vertex="1" connectable="0" parent="1">
          <mxGeometry x="170" y="300" width="90" height="100" as="geometry" />
        </mxCell>
        <mxCell id="qjGqlxLeWbetl0XT6fP5-284" value="" style="shape=note;whiteSpace=wrap;html=1;backgroundOutline=1;darkOpacity=0.05;rounded=1;size=20;strokeWidth=2;fontSize=20;" vertex="1" parent="qjGqlxLeWbetl0XT6fP5-283">
          <mxGeometry x="5" width="80" height="100" as="geometry" />
        </mxCell>
        <mxCell id="qjGqlxLeWbetl0XT6fP5-285" value="&lt;font style=&quot;font-size: 20px;&quot; data-font-src=&quot;https://fonts.googleapis.com/css?family=Maven+Pro&quot; face=&quot;Maven Pro&quot; color=&quot;#ffffff&quot;&gt;&lt;b style=&quot;font-size: 20px;&quot;&gt;&lt;font style=&quot;font-size: 20px;&quot;&gt;Fastq&lt;/font&gt;&lt;/b&gt;&lt;/font&gt;" style="rounded=1;whiteSpace=wrap;html=1;strokeWidth=2;fillColor=#000000;fontSize=20;" vertex="1" parent="qjGqlxLeWbetl0XT6fP5-283">
          <mxGeometry y="40" width="90" height="40" as="geometry" />
        </mxCell>
        <mxCell id="qjGqlxLeWbetl0XT6fP5-286" value="" style="group;rounded=1;fontSize=20;" vertex="1" connectable="0" parent="1">
          <mxGeometry x="280" y="140" width="90" height="100" as="geometry" />
        </mxCell>
        <mxCell id="qjGqlxLeWbetl0XT6fP5-287" value="" style="shape=note;whiteSpace=wrap;html=1;backgroundOutline=1;darkOpacity=0.05;rounded=1;size=20;strokeWidth=2;fontSize=20;" vertex="1" parent="qjGqlxLeWbetl0XT6fP5-286">
          <mxGeometry x="5" width="80" height="100" as="geometry" />
        </mxCell>
        <mxCell id="qjGqlxLeWbetl0XT6fP5-288" value="&lt;font style=&quot;font-size: 20px;&quot; data-font-src=&quot;https://fonts.googleapis.com/css?family=Maven+Pro&quot; face=&quot;Maven Pro&quot; color=&quot;#ffffff&quot;&gt;&lt;b style=&quot;font-size: 20px;&quot;&gt;&lt;font style=&quot;font-size: 20px;&quot;&gt;sam&lt;/font&gt;&lt;/b&gt;&lt;/font&gt;" style="rounded=1;whiteSpace=wrap;html=1;strokeWidth=2;fillColor=#000000;fontSize=20;" vertex="1" parent="qjGqlxLeWbetl0XT6fP5-286">
          <mxGeometry y="40" width="90" height="40" as="geometry" />
        </mxCell>
        <mxCell id="qjGqlxLeWbetl0XT6fP5-289" value="" style="group;rounded=1;fontSize=20;" vertex="1" connectable="0" parent="1">
          <mxGeometry x="450" y="140" width="90" height="100" as="geometry" />
        </mxCell>
        <mxCell id="qjGqlxLeWbetl0XT6fP5-290" value="" style="shape=note;whiteSpace=wrap;html=1;backgroundOutline=1;darkOpacity=0.05;rounded=1;size=20;strokeWidth=2;fontSize=20;" vertex="1" parent="qjGqlxLeWbetl0XT6fP5-289">
          <mxGeometry x="5" width="80" height="100" as="geometry" />
        </mxCell>
        <mxCell id="qjGqlxLeWbetl0XT6fP5-291" value="&lt;font style=&quot;font-size: 20px;&quot; data-font-src=&quot;https://fonts.googleapis.com/css?family=Maven+Pro&quot; face=&quot;Maven Pro&quot; color=&quot;#ffffff&quot;&gt;&lt;b style=&quot;font-size: 20px;&quot;&gt;&lt;font style=&quot;font-size: 20px;&quot;&gt;bam&lt;/font&gt;&lt;/b&gt;&lt;/font&gt;" style="rounded=1;whiteSpace=wrap;html=1;strokeWidth=2;fillColor=#000000;fontSize=20;" vertex="1" parent="qjGqlxLeWbetl0XT6fP5-289">
          <mxGeometry y="40" width="90" height="40" as="geometry" />
        </mxCell>
        <mxCell id="qjGqlxLeWbetl0XT6fP5-293" value="" style="group;rounded=1;fontSize=20;" vertex="1" connectable="0" parent="1">
          <mxGeometry x="700" y="130" width="100" height="110" as="geometry" />
        </mxCell>
        <mxCell id="qjGqlxLeWbetl0XT6fP5-294" value="" style="shape=note;whiteSpace=wrap;html=1;backgroundOutline=1;darkOpacity=0.05;rounded=1;size=20;strokeWidth=2;fontSize=20;" vertex="1" parent="qjGqlxLeWbetl0XT6fP5-293">
          <mxGeometry x="5" width="80" height="100" as="geometry" />
        </mxCell>
        <mxCell id="qjGqlxLeWbetl0XT6fP5-295" value="&lt;font style=&quot;font-size: 20px;&quot; data-font-src=&quot;https://fonts.googleapis.com/css?family=Maven+Pro&quot; face=&quot;Maven Pro&quot; color=&quot;#ffffff&quot;&gt;&lt;b style=&quot;font-size: 20px;&quot;&gt;&lt;font style=&quot;font-size: 20px;&quot;&gt;Fastq&lt;/font&gt;&lt;/b&gt;&lt;/font&gt;" style="rounded=1;whiteSpace=wrap;html=1;strokeWidth=2;fillColor=#000000;fontSize=20;" vertex="1" parent="qjGqlxLeWbetl0XT6fP5-293">
          <mxGeometry y="40" width="90" height="40" as="geometry" />
        </mxCell>
        <mxCell id="qjGqlxLeWbetl0XT6fP5-296" value="" style="shape=note;whiteSpace=wrap;html=1;backgroundOutline=1;darkOpacity=0.05;rounded=1;size=20;strokeWidth=2;fontSize=20;" vertex="1" parent="qjGqlxLeWbetl0XT6fP5-293">
          <mxGeometry x="10" y="5" width="80" height="100" as="geometry" />
        </mxCell>
        <mxCell id="qjGqlxLeWbetl0XT6fP5-297" value="&lt;font style=&quot;font-size: 20px;&quot; data-font-src=&quot;https://fonts.googleapis.com/css?family=Maven+Pro&quot; face=&quot;Maven Pro&quot; color=&quot;#ffffff&quot;&gt;&lt;b style=&quot;font-size: 20px;&quot;&gt;&lt;font style=&quot;font-size: 20px;&quot;&gt;Fastq&lt;/font&gt;&lt;/b&gt;&lt;/font&gt;" style="rounded=1;whiteSpace=wrap;html=1;strokeWidth=2;fillColor=#000000;fontSize=20;" vertex="1" parent="qjGqlxLeWbetl0XT6fP5-293">
          <mxGeometry x="5" y="45" width="90" height="40" as="geometry" />
        </mxCell>
        <mxCell id="qjGqlxLeWbetl0XT6fP5-298" value="" style="shape=note;whiteSpace=wrap;html=1;backgroundOutline=1;darkOpacity=0.05;rounded=1;size=20;strokeWidth=2;fontSize=20;" vertex="1" parent="qjGqlxLeWbetl0XT6fP5-293">
          <mxGeometry x="15" y="10" width="80" height="100" as="geometry" />
        </mxCell>
        <mxCell id="qjGqlxLeWbetl0XT6fP5-299" value="&lt;font style=&quot;font-size: 20px;&quot; data-font-src=&quot;https://fonts.googleapis.com/css?family=Maven+Pro&quot; face=&quot;Maven Pro&quot; color=&quot;#ffffff&quot;&gt;&lt;b style=&quot;font-size: 20px;&quot;&gt;&lt;font style=&quot;font-size: 20px;&quot;&gt;bam&lt;/font&gt;&lt;/b&gt;&lt;/font&gt;" style="rounded=1;whiteSpace=wrap;html=1;strokeWidth=2;fillColor=#000000;fontSize=20;" vertex="1" parent="qjGqlxLeWbetl0XT6fP5-293">
          <mxGeometry x="10" y="50" width="90" height="40" as="geometry" />
        </mxCell>
        <mxCell id="qjGqlxLeWbetl0XT6fP5-300" value="" style="group;rounded=1;fontSize=20;" vertex="1" connectable="0" parent="1">
          <mxGeometry x="890" y="140" width="90" height="100" as="geometry" />
        </mxCell>
        <mxCell id="qjGqlxLeWbetl0XT6fP5-301" value="" style="shape=note;whiteSpace=wrap;html=1;backgroundOutline=1;darkOpacity=0.05;rounded=1;size=20;strokeWidth=2;fontSize=20;" vertex="1" parent="qjGqlxLeWbetl0XT6fP5-300">
          <mxGeometry x="5" width="80" height="100" as="geometry" />
        </mxCell>
        <mxCell id="qjGqlxLeWbetl0XT6fP5-302" value="&lt;font style=&quot;font-size: 20px;&quot; data-font-src=&quot;https://fonts.googleapis.com/css?family=Maven+Pro&quot; face=&quot;Maven Pro&quot; color=&quot;#ffffff&quot;&gt;&lt;b style=&quot;font-size: 20px;&quot;&gt;&lt;font style=&quot;font-size: 20px;&quot;&gt;fasta&lt;/font&gt;&lt;/b&gt;&lt;/font&gt;" style="rounded=1;whiteSpace=wrap;html=1;strokeWidth=2;fillColor=#000000;fontSize=20;" vertex="1" parent="qjGqlxLeWbetl0XT6fP5-300">
          <mxGeometry y="40" width="90" height="40" as="geometry" />
        </mxCell>
        <mxCell id="qjGqlxLeWbetl0XT6fP5-362" value="" style="endArrow=none;html=1;rounded=1;strokeWidth=5;strokeColor=#0080FF;fontSize=20;entryX=0;entryY=0.5;entryDx=0;entryDy=0;entryPerimeter=0;" edge="1" parent="1" target="qjGqlxLeWbetl0XT6fP5-363">
          <mxGeometry width="50" height="50" relative="1" as="geometry">
            <mxPoint x="-40" y="400" as="sourcePoint" />
            <mxPoint x="540" y="440" as="targetPoint" />
            <Array as="points">
              <mxPoint x="-40" y="420" />
              <mxPoint x="-40" y="440" />
              <mxPoint x="480" y="440" />
              <mxPoint x="510" y="440" />
            </Array>
          </mxGeometry>
        </mxCell>
        <mxCell id="qjGqlxLeWbetl0XT6fP5-363" value="" style="ellipse;whiteSpace=wrap;html=1;aspect=fixed;rounded=1;rotation=0;strokeWidth=2;fontSize=20;" vertex="1" parent="1">
          <mxGeometry x="550" y="430" width="20" height="20" as="geometry" />
        </mxCell>
        <mxCell id="qjGqlxLeWbetl0XT6fP5-364" value="" style="endArrow=none;html=1;rounded=1;strokeWidth=5;strokeColor=#0080FF;fontSize=20;" edge="1" parent="1">
          <mxGeometry width="50" height="50" relative="1" as="geometry">
            <mxPoint x="570" y="439.40999999999997" as="sourcePoint" />
            <mxPoint x="900" y="410" as="targetPoint" />
            <Array as="points">
              <mxPoint x="900" y="439" />
            </Array>
          </mxGeometry>
        </mxCell>
        <mxCell id="qjGqlxLeWbetl0XT6fP5-366" value="" style="endArrow=none;html=1;rounded=1;strokeWidth=5;strokeColor=#00c663;exitX=1;exitY=0.5;exitDx=0;exitDy=0;exitPerimeter=0;fontSize=20;" edge="1" parent="1">
          <mxGeometry width="50" height="50" relative="1" as="geometry">
            <mxPoint x="670" y="480" as="sourcePoint" />
            <mxPoint x="1520" y="240" as="targetPoint" />
            <Array as="points">
              <mxPoint x="1520" y="480" />
            </Array>
          </mxGeometry>
        </mxCell>
        <mxCell id="qjGqlxLeWbetl0XT6fP5-367" value="" style="endArrow=none;html=1;rounded=1;strokeWidth=5;strokeColor=#00c663;entryX=0;entryY=0.5;entryDx=0;entryDy=0;fontSize=20;" edge="1" parent="1" target="qjGqlxLeWbetl0XT6fP5-398">
          <mxGeometry width="50" height="50" relative="1" as="geometry">
            <mxPoint x="210" y="400" as="sourcePoint" />
            <mxPoint x="370" y="480" as="targetPoint" />
            <Array as="points">
              <mxPoint x="210" y="480" />
            </Array>
          </mxGeometry>
        </mxCell>
        <mxCell id="qjGqlxLeWbetl0XT6fP5-370" value="" style="endArrow=none;html=1;rounded=1;strokeWidth=5;strokeColor=#00c663;entryX=0;entryY=0.5;entryDx=0;entryDy=0;exitX=1;exitY=0.5;exitDx=0;exitDy=0;fontSize=20;" edge="1" parent="1" source="qjGqlxLeWbetl0XT6fP5-398" target="qjGqlxLeWbetl0XT6fP5-395">
          <mxGeometry width="50" height="50" relative="1" as="geometry">
            <mxPoint x="430" y="480" as="sourcePoint" />
            <mxPoint x="610" y="480" as="targetPoint" />
          </mxGeometry>
        </mxCell>
        <mxCell id="qjGqlxLeWbetl0XT6fP5-373" value="" style="endArrow=none;html=1;rounded=1;strokeWidth=5;strokeColor=#FF0080;fontColor=#ff0080;fontSize=20;" edge="1" parent="1">
          <mxGeometry width="50" height="50" relative="1" as="geometry">
            <mxPoint x="1150" y="210" as="sourcePoint" />
            <mxPoint x="1309" y="280" as="targetPoint" />
            <Array as="points">
              <mxPoint x="1229" y="210" />
              <mxPoint x="1269" y="280" />
            </Array>
          </mxGeometry>
        </mxCell>
        <mxCell id="qjGqlxLeWbetl0XT6fP5-374" value="" style="endArrow=none;html=1;rounded=1;strokeWidth=5;strokeColor=#FF0080;entryX=0;entryY=0.5;entryDx=0;entryDy=0;exitX=0.438;exitY=0;exitDx=0;exitDy=0;exitPerimeter=0;fontColor=#ff0080;fontSize=20;" edge="1" parent="1" source="qjGqlxLeWbetl0XT6fP5-284" target="qjGqlxLeWbetl0XT6fP5-288">
          <mxGeometry width="50" height="50" relative="1" as="geometry">
            <mxPoint x="210" y="290" as="sourcePoint" />
            <mxPoint x="260" y="200" as="targetPoint" />
            <Array as="points">
              <mxPoint x="210" y="200" />
            </Array>
          </mxGeometry>
        </mxCell>
        <mxCell id="qjGqlxLeWbetl0XT6fP5-375" value="" style="endArrow=none;html=1;rounded=1;strokeWidth=5;strokeColor=#FF0080;entryX=0;entryY=0.5;entryDx=0;entryDy=0;fontColor=#ff0080;fontSize=20;" edge="1" parent="1">
          <mxGeometry width="50" height="50" relative="1" as="geometry">
            <mxPoint x="370" y="200" as="sourcePoint" />
            <mxPoint x="450" y="200" as="targetPoint" />
          </mxGeometry>
        </mxCell>
        <mxCell id="qjGqlxLeWbetl0XT6fP5-377" value="" style="endArrow=none;html=1;rounded=1;strokeWidth=5;strokeColor=#FF0080;entryX=0;entryY=0.75;entryDx=0;entryDy=0;fontColor=#ff0080;fontSize=20;" edge="1" parent="1" target="qjGqlxLeWbetl0XT6fP5-295">
          <mxGeometry width="50" height="50" relative="1" as="geometry">
            <mxPoint x="540" y="200" as="sourcePoint" />
            <mxPoint x="670" y="200" as="targetPoint" />
          </mxGeometry>
        </mxCell>
        <mxCell id="qjGqlxLeWbetl0XT6fP5-387" value="" style="endArrow=none;html=1;rounded=1;strokeWidth=5;strokeColor=#FF0080;exitX=1;exitY=0.5;exitDx=0;exitDy=0;fontColor=#ff0080;fontSize=20;" edge="1" parent="1" source="qjGqlxLeWbetl0XT6fP5-423">
          <mxGeometry width="50" height="50" relative="1" as="geometry">
            <mxPoint x="1160" y="200" as="sourcePoint" />
            <mxPoint x="1300" y="120" as="targetPoint" />
            <Array as="points">
              <mxPoint x="1230" y="200" />
              <mxPoint x="1260" y="120" />
            </Array>
          </mxGeometry>
        </mxCell>
        <mxCell id="qjGqlxLeWbetl0XT6fP5-392" value="" style="ellipse;whiteSpace=wrap;html=1;aspect=fixed;rounded=1;rotation=0;strokeWidth=2;fontSize=20;" vertex="1" parent="1">
          <mxGeometry x="1300" y="110" width="20" height="20" as="geometry" />
        </mxCell>
        <mxCell id="qjGqlxLeWbetl0XT6fP5-393" value="" style="ellipse;whiteSpace=wrap;html=1;aspect=fixed;rounded=1;rotation=0;strokeWidth=2;fontSize=20;" vertex="1" parent="1">
          <mxGeometry x="1300" y="270" width="20" height="20" as="geometry" />
        </mxCell>
        <mxCell id="qjGqlxLeWbetl0XT6fP5-394" value="mlst" style="text;html=1;align=center;verticalAlign=middle;whiteSpace=wrap;rounded=1;fontFamily=Maven Pro;fontSource=https%3A%2F%2Ffonts.googleapis.com%2Fcss%3Ffamily%3DMaven%2BPro;fontColor=#008000;fontSize=20;" vertex="1" parent="1">
          <mxGeometry x="1280" y="200" width="80" height="20" as="geometry" />
        </mxCell>
        <mxCell id="qjGqlxLeWbetl0XT6fP5-395" value="" style="ellipse;whiteSpace=wrap;html=1;aspect=fixed;rounded=1;rotation=0;strokeWidth=2;fontSize=20;" vertex="1" parent="1">
          <mxGeometry x="670" y="470" width="20" height="20" as="geometry" />
        </mxCell>
        <mxCell id="qjGqlxLeWbetl0XT6fP5-398" value="" style="ellipse;whiteSpace=wrap;html=1;aspect=fixed;rounded=1;rotation=0;strokeWidth=2;fontSize=20;" vertex="1" parent="1">
          <mxGeometry x="390" y="470" width="20" height="20" as="geometry" />
        </mxCell>
        <mxCell id="qjGqlxLeWbetl0XT6fP5-399" value="" style="shape=datastore;whiteSpace=wrap;html=1;rounded=1;strokeWidth=3;fontSize=20;" vertex="1" parent="1">
          <mxGeometry x="1200" y="35" width="50" height="55" as="geometry" />
        </mxCell>
        <mxCell id="qjGqlxLeWbetl0XT6fP5-400" value="" style="shape=datastore;whiteSpace=wrap;html=1;rounded=1;strokeWidth=3;fontSize=20;" vertex="1" parent="1">
          <mxGeometry x="250" y="529" width="60" height="60" as="geometry" />
        </mxCell>
        <mxCell id="qjGqlxLeWbetl0XT6fP5-401" value="" style="endArrow=none;html=1;rounded=1;strokeWidth=5;strokeColor=#FF0080;fontColor=#ff0080;fontSize=20;" edge="1" parent="1">
          <mxGeometry width="50" height="50" relative="1" as="geometry">
            <mxPoint x="1320" y="120" as="sourcePoint" />
            <mxPoint x="1460" y="200" as="targetPoint" />
            <Array as="points">
              <mxPoint x="1380" y="120" />
              <mxPoint x="1410" y="200" />
            </Array>
          </mxGeometry>
        </mxCell>
        <mxCell id="qjGqlxLeWbetl0XT6fP5-402" value="" style="endArrow=none;html=1;rounded=1;strokeWidth=5;strokeColor=#FF0080;fontColor=#ff0080;fontSize=20;" edge="1" parent="1">
          <mxGeometry width="50" height="50" relative="1" as="geometry">
            <mxPoint x="1320" y="279.5" as="sourcePoint" />
            <mxPoint x="1460" y="210" as="targetPoint" />
            <Array as="points">
              <mxPoint x="1380" y="280" />
              <mxPoint x="1410" y="210" />
            </Array>
          </mxGeometry>
        </mxCell>
        <mxCell id="qjGqlxLeWbetl0XT6fP5-403" value="" style="endArrow=none;html=1;rounded=1;strokeWidth=5;strokeColor=#FF0080;fontColor=#ff0080;exitX=0.438;exitY=1;exitDx=0;exitDy=0;exitPerimeter=0;fontSize=20;" edge="1" parent="1" source="qjGqlxLeWbetl0XT6fP5-290">
          <mxGeometry width="50" height="50" relative="1" as="geometry">
            <mxPoint x="480" y="240" as="sourcePoint" />
            <mxPoint x="1510" y="240" as="targetPoint" />
            <Array as="points">
              <mxPoint x="490" y="310" />
              <mxPoint x="920" y="310" />
              <mxPoint x="1510" y="310" />
            </Array>
          </mxGeometry>
        </mxCell>
        <mxCell id="qjGqlxLeWbetl0XT6fP5-406" value="" style="endArrow=none;html=1;rounded=1;strokeWidth=5;exitX=0.563;exitY=1;exitDx=0;exitDy=0;exitPerimeter=0;strokeColor=#FF0080;fontColor=#ff0080;fontSize=20;" edge="1" parent="1" source="qjGqlxLeWbetl0XT6fP5-301" target="qjGqlxLeWbetl0XT6fP5-430">
          <mxGeometry width="50" height="50" relative="1" as="geometry">
            <mxPoint x="940" y="247.5" as="sourcePoint" />
            <mxPoint x="1510" y="240" as="targetPoint" />
            <Array as="points">
              <mxPoint x="940" y="300" />
              <mxPoint x="1160" y="300" />
              <mxPoint x="1320" y="300" />
              <mxPoint x="1500" y="300" />
            </Array>
          </mxGeometry>
        </mxCell>
        <mxCell id="qjGqlxLeWbetl0XT6fP5-411" value="" style="endArrow=none;html=1;rounded=1;strokeWidth=5;strokeColor=#FF0080;fontSize=20;fontColor=#ff0080;" edge="1" parent="1">
          <mxGeometry width="50" height="50" relative="1" as="geometry">
            <mxPoint x="640" y="200" as="sourcePoint" />
            <mxPoint x="600" y="160" as="targetPoint" />
            <Array as="points">
              <mxPoint x="620" y="200" />
              <mxPoint x="600" y="180" />
            </Array>
          </mxGeometry>
        </mxCell>
        <mxCell id="qjGqlxLeWbetl0XT6fP5-412" value="primer bed" style="text;html=1;align=center;verticalAlign=middle;whiteSpace=wrap;rounded=0;fontSize=20;fontFamily=Maven Pro;fontSource=https%3A%2F%2Ffonts.googleapis.com%2Fcss%3Ffamily%3DMaven%2BPro;" vertex="1" parent="1">
          <mxGeometry x="550" y="135" width="120" height="30" as="geometry" />
        </mxCell>
        <mxCell id="qjGqlxLeWbetl0XT6fP5-414" value="" style="endArrow=none;html=1;rounded=1;strokeWidth=5;strokeColor=#00c663;fontSize=20;" edge="1" parent="1">
          <mxGeometry width="50" height="50" relative="1" as="geometry">
            <mxPoint x="330" y="480" as="sourcePoint" />
            <mxPoint x="290" y="520" as="targetPoint" />
            <Array as="points">
              <mxPoint x="310" y="480" />
              <mxPoint x="290" y="500" />
            </Array>
          </mxGeometry>
        </mxCell>
        <mxCell id="qjGqlxLeWbetl0XT6fP5-416" value="" style="endArrow=none;html=1;rounded=1;strokeWidth=5;strokeColor=#FF0080;fontSize=20;fontColor=#ff0080;" edge="1" parent="1">
          <mxGeometry width="50" height="50" relative="1" as="geometry">
            <mxPoint x="1280" y="120" as="sourcePoint" />
            <mxPoint x="1240" y="100" as="targetPoint" />
            <Array as="points">
              <mxPoint x="1260" y="120" />
            </Array>
          </mxGeometry>
        </mxCell>
        <mxCell id="qjGqlxLeWbetl0XT6fP5-417" value="" style="endArrow=none;html=1;rounded=1;strokeWidth=5;strokeColor=#0080FF;exitX=0.313;exitY=1;exitDx=0;exitDy=0;exitPerimeter=0;fontSize=20;" edge="1" parent="1" source="qjGqlxLeWbetl0XT6fP5-290" target="qjGqlxLeWbetl0XT6fP5-465">
          <mxGeometry width="50" height="50" relative="1" as="geometry">
            <mxPoint x="320" y="240" as="sourcePoint" />
            <mxPoint x="880" y="350" as="targetPoint" />
            <Array as="points">
              <mxPoint x="480" y="280" />
              <mxPoint x="480" y="320" />
              <mxPoint x="900" y="320" />
            </Array>
          </mxGeometry>
        </mxCell>
        <mxCell id="qjGqlxLeWbetl0XT6fP5-418" value="medaka" style="text;html=1;align=center;verticalAlign=middle;whiteSpace=wrap;rounded=1;fontFamily=Maven Pro;fontSource=https%3A%2F%2Ffonts.googleapis.com%2Fcss%3Ffamily%3DMaven%2BPro;fontColor=#008000;fontSize=20;" vertex="1" parent="1">
          <mxGeometry x="1065" y="60" width="80" height="20" as="geometry" />
        </mxCell>
        <mxCell id="qjGqlxLeWbetl0XT6fP5-419" value="&lt;div style=&quot;font-size: 18px;&quot;&gt;polishing and error correction&lt;br style=&quot;font-size: 20px;&quot;&gt;&lt;/div&gt;" style="text;html=1;align=center;verticalAlign=middle;whiteSpace=wrap;rounded=0;fontSize=20;fontFamily=Maven Pro;fontSource=https%3A%2F%2Ffonts.googleapis.com%2Fcss%3Ffamily%3DMaven%2BPro;" vertex="1" parent="1">
          <mxGeometry x="1020" y="90" width="200" height="37.5" as="geometry" />
        </mxCell>
        <mxCell id="qjGqlxLeWbetl0XT6fP5-421" value="" style="group;rounded=1;fontSize=20;" vertex="1" connectable="0" parent="1">
          <mxGeometry x="1060" y="140" width="90" height="100" as="geometry" />
        </mxCell>
        <mxCell id="qjGqlxLeWbetl0XT6fP5-422" value="" style="shape=note;whiteSpace=wrap;html=1;backgroundOutline=1;darkOpacity=0.05;rounded=1;size=20;strokeWidth=2;fontSize=20;" vertex="1" parent="qjGqlxLeWbetl0XT6fP5-421">
          <mxGeometry x="5" width="80" height="100" as="geometry" />
        </mxCell>
        <mxCell id="qjGqlxLeWbetl0XT6fP5-423" value="&lt;font style=&quot;font-size: 20px;&quot; data-font-src=&quot;https://fonts.googleapis.com/css?family=Maven+Pro&quot; face=&quot;Maven Pro&quot; color=&quot;#ffffff&quot;&gt;&lt;b style=&quot;font-size: 20px;&quot;&gt;&lt;font style=&quot;font-size: 20px;&quot;&gt;fasta&lt;/font&gt;&lt;/b&gt;&lt;/font&gt;" style="rounded=1;whiteSpace=wrap;html=1;strokeWidth=2;fillColor=#000000;fontSize=20;" vertex="1" parent="qjGqlxLeWbetl0XT6fP5-421">
          <mxGeometry y="40" width="90" height="40" as="geometry" />
        </mxCell>
        <mxCell id="qjGqlxLeWbetl0XT6fP5-424" value="" style="endArrow=none;html=1;rounded=1;strokeWidth=5;strokeColor=#FF0080;entryX=0;entryY=0.5;entryDx=0;entryDy=0;fontColor=#ff0080;fontSize=20;" edge="1" parent="1">
          <mxGeometry width="50" height="50" relative="1" as="geometry">
            <mxPoint x="980" y="200" as="sourcePoint" />
            <mxPoint x="1070" y="200.5" as="targetPoint" />
          </mxGeometry>
        </mxCell>
        <mxCell id="qjGqlxLeWbetl0XT6fP5-430" value="" style="sketch=0;pointerEvents=1;shadow=0;dashed=0;html=1;strokeColor=none;fillColor=#000000;labelPosition=center;verticalLabelPosition=bottom;verticalAlign=top;align=center;outlineConnect=0;shape=mxgraph.veeam2.report;rounded=1;fontSize=20;" vertex="1" parent="1">
          <mxGeometry x="1460" y="140" width="80" height="105" as="geometry" />
        </mxCell>
        <mxCell id="qjGqlxLeWbetl0XT6fP5-432" value="" style="endArrow=none;html=1;rounded=1;strokeWidth=5;entryX=0;entryY=0.5;entryDx=0;entryDy=0;fontSize=20;" edge="1" parent="1" target="qjGqlxLeWbetl0XT6fP5-441">
          <mxGeometry width="50" height="50" relative="1" as="geometry">
            <mxPoint x="10" y="359.40999999999997" as="sourcePoint" />
            <mxPoint x="59.99999999994952" y="360" as="targetPoint" />
          </mxGeometry>
        </mxCell>
        <mxCell id="qjGqlxLeWbetl0XT6fP5-433" value="Bovreproseq db" style="text;html=1;align=center;verticalAlign=middle;whiteSpace=wrap;rounded=0;fontSize=18;fontFamily=Maven Pro;fontSource=https%3A%2F%2Ffonts.googleapis.com%2Fcss%3Ffamily%3DMaven%2BPro;" vertex="1" parent="1">
          <mxGeometry x="1150" y="5" width="150" height="30" as="geometry" />
        </mxCell>
        <mxCell id="qjGqlxLeWbetl0XT6fP5-434" value="kraken2 db" style="text;html=1;align=center;verticalAlign=middle;whiteSpace=wrap;rounded=1;fontStyle=0;fontFamily=Maven Pro;fontSource=https%3A%2F%2Ffonts.googleapis.com%2Fcss%3Ffamily%3DMaven%2BPro;fontSize=20;" vertex="1" parent="1">
          <mxGeometry x="240" y="600" width="80" height="30" as="geometry" />
        </mxCell>
        <mxCell id="qjGqlxLeWbetl0XT6fP5-441" value="" style="ellipse;whiteSpace=wrap;html=1;aspect=fixed;rounded=1;rotation=0;strokeWidth=2;fontSize=20;" vertex="1" parent="1">
          <mxGeometry x="70" y="350" width="20" height="20" as="geometry" />
        </mxCell>
        <mxCell id="qjGqlxLeWbetl0XT6fP5-442" value="" style="endArrow=none;html=1;rounded=1;strokeWidth=5;entryX=0;entryY=0.5;entryDx=0;entryDy=0;fontSize=20;" edge="1" parent="1" target="qjGqlxLeWbetl0XT6fP5-285">
          <mxGeometry width="50" height="50" relative="1" as="geometry">
            <mxPoint x="90" y="359.40999999999997" as="sourcePoint" />
            <mxPoint x="130" y="359.40999999999997" as="targetPoint" />
          </mxGeometry>
        </mxCell>
        <mxCell id="qjGqlxLeWbetl0XT6fP5-443" value="&lt;font style=&quot;font-size: 18px;&quot;&gt;Trimming barcodes and adapters&lt;br style=&quot;font-size: 18px;&quot;&gt;&lt;/font&gt;" style="text;html=1;align=center;verticalAlign=middle;whiteSpace=wrap;rounded=1;fontStyle=0;fontFamily=Maven Pro;fontSource=https%3A%2F%2Ffonts.googleapis.com%2Fcss%3Ffamily%3DMaven%2BPro;fontSize=18;" vertex="1" parent="1">
          <mxGeometry y="393" width="190" height="44" as="geometry" />
        </mxCell>
        <mxCell id="qjGqlxLeWbetl0XT6fP5-444" value="porechop" style="text;html=1;align=center;verticalAlign=middle;whiteSpace=wrap;rounded=1;fontFamily=Maven Pro;fontSource=https%3A%2F%2Ffonts.googleapis.com%2Fcss%3Ffamily%3DMaven%2BPro;fontColor=#008000;fontSize=20;" vertex="1" parent="1">
          <mxGeometry x="40" y="370" width="80" height="30" as="geometry" />
        </mxCell>
        <mxCell id="qjGqlxLeWbetl0XT6fP5-447" value="&lt;font style=&quot;font-size: 20px;&quot; data-font-src=&quot;https://fonts.googleapis.com/css?family=Maven+Pro&quot; face=&quot;Maven Pro&quot; color=&quot;#ffffff&quot;&gt;&lt;b style=&quot;font-size: 20px;&quot;&gt;&lt;font style=&quot;font-size: 20px;&quot;&gt;bam&lt;/font&gt;&lt;/b&gt;&lt;/font&gt;" style="rounded=1;whiteSpace=wrap;html=1;strokeWidth=2;fillColor=#000000;fontSize=20;" vertex="1" parent="1">
          <mxGeometry x="880" y="180" width="90" height="40" as="geometry" />
        </mxCell>
        <mxCell id="qjGqlxLeWbetl0XT6fP5-449" value="&lt;font style=&quot;font-size: 20px;&quot; data-font-src=&quot;https://fonts.googleapis.com/css?family=Maven+Pro&quot; face=&quot;Maven Pro&quot; color=&quot;#ffffff&quot;&gt;&lt;b style=&quot;font-size: 20px;&quot;&gt;&lt;font style=&quot;font-size: 20px;&quot;&gt;fasta&lt;/font&gt;&lt;/b&gt;&lt;/font&gt;" style="rounded=1;whiteSpace=wrap;html=1;strokeWidth=2;fillColor=#000000;fontSize=20;" vertex="1" parent="1">
          <mxGeometry x="1050" y="180" width="90" height="40" as="geometry" />
        </mxCell>
        <mxCell id="qjGqlxLeWbetl0XT6fP5-451" value="&lt;font style=&quot;font-size: 20px;&quot; data-font-src=&quot;https://fonts.googleapis.com/css?family=Maven+Pro&quot; face=&quot;Maven Pro&quot; color=&quot;#ffffff&quot;&gt;&lt;b style=&quot;font-size: 20px;&quot;&gt;&lt;font style=&quot;font-size: 20px;&quot;&gt;fasta&lt;/font&gt;&lt;/b&gt;&lt;/font&gt;" style="rounded=1;whiteSpace=wrap;html=1;strokeWidth=2;fillColor=#000000;fontSize=20;" vertex="1" parent="1">
          <mxGeometry x="880" y="180" width="90" height="40" as="geometry" />
        </mxCell>
        <mxCell id="qjGqlxLeWbetl0XT6fP5-453" value="" style="endArrow=none;html=1;rounded=1;strokeWidth=5;entryX=0;entryY=0.5;entryDx=0;entryDy=0;strokeColor=#FF0080;fontColor=#ff0080;fontSize=20;" edge="1" parent="1" target="qjGqlxLeWbetl0XT6fP5-451">
          <mxGeometry width="50" height="50" relative="1" as="geometry">
            <mxPoint x="795" y="199.41" as="sourcePoint" />
            <mxPoint x="835" y="199.41" as="targetPoint" />
          </mxGeometry>
        </mxCell>
        <mxCell id="qjGqlxLeWbetl0XT6fP5-465" value="" style="sketch=0;pointerEvents=1;shadow=0;dashed=0;html=1;strokeColor=none;fillColor=#000000;labelPosition=center;verticalLabelPosition=bottom;verticalAlign=top;align=center;outlineConnect=0;shape=mxgraph.veeam2.report;rounded=1;fontSize=20;" vertex="1" parent="1">
          <mxGeometry x="870" y="350" width="60" height="67" as="geometry" />
        </mxCell>
        <mxCell id="qjGqlxLeWbetl0XT6fP5-466" value="rmarkdown" style="text;html=1;align=center;verticalAlign=middle;whiteSpace=wrap;rounded=1;fontFamily=Maven Pro;fontSource=https%3A%2F%2Ffonts.googleapis.com%2Fcss%3Ffamily%3DMaven%2BPro;fontColor=#008000;fontSize=20;" vertex="1" parent="1">
          <mxGeometry x="1470" y="90" width="80" height="20" as="geometry" />
        </mxCell>
        <mxCell id="qjGqlxLeWbetl0XT6fP5-468" value="&lt;div style=&quot;font-size: 18px;&quot;&gt;results report&lt;br&gt;&lt;/div&gt;" style="text;html=1;align=center;verticalAlign=middle;whiteSpace=wrap;rounded=0;fontSize=18;fontFamily=Maven Pro;fontSource=https%3A%2F%2Ffonts.googleapis.com%2Fcss%3Ffamily%3DMaven%2BPro;" vertex="1" parent="1">
          <mxGeometry x="1390" y="110" width="220" height="30" as="geometry" />
        </mxCell>
        <mxCell id="qjGqlxLeWbetl0XT6fP5-480" value="" style="group;rounded=1;fontSize=20;" vertex="1" connectable="0" parent="1">
          <mxGeometry x="900" y="150" width="90" height="100" as="geometry" />
        </mxCell>
        <mxCell id="qjGqlxLeWbetl0XT6fP5-481" value="" style="shape=note;whiteSpace=wrap;html=1;backgroundOutline=1;darkOpacity=0.05;rounded=1;size=20;strokeWidth=2;fontSize=20;" vertex="1" parent="qjGqlxLeWbetl0XT6fP5-480">
          <mxGeometry x="5" width="80" height="100" as="geometry" />
        </mxCell>
        <mxCell id="qjGqlxLeWbetl0XT6fP5-482" value="&lt;font style=&quot;font-size: 20px;&quot; data-font-src=&quot;https://fonts.googleapis.com/css?family=Maven+Pro&quot; face=&quot;Maven Pro&quot; color=&quot;#ffffff&quot;&gt;&lt;b style=&quot;font-size: 20px;&quot;&gt;&lt;font style=&quot;font-size: 20px;&quot;&gt;fasta&lt;/font&gt;&lt;/b&gt;&lt;/font&gt;" style="rounded=1;whiteSpace=wrap;html=1;strokeWidth=2;fillColor=#000000;fontSize=20;" vertex="1" parent="qjGqlxLeWbetl0XT6fP5-480">
          <mxGeometry y="40" width="90" height="40" as="geometry" />
        </mxCell>
        <mxCell id="qjGqlxLeWbetl0XT6fP5-483" value="" style="endArrow=none;html=1;rounded=1;strokeWidth=5;strokeColor=#FF0080;fontSize=20;fontColor=#ff0080;" edge="1" parent="1">
          <mxGeometry width="50" height="50" relative="1" as="geometry">
            <mxPoint x="260" y="200" as="sourcePoint" />
            <mxPoint x="220" y="160" as="targetPoint" />
            <Array as="points">
              <mxPoint x="240" y="200" />
              <mxPoint x="220" y="180" />
            </Array>
          </mxGeometry>
        </mxCell>
        <mxCell id="qjGqlxLeWbetl0XT6fP5-484" value="" style="group;rounded=1;fontSize=20;" vertex="1" connectable="0" parent="1">
          <mxGeometry x="170" y="80" width="70" height="80" as="geometry" />
        </mxCell>
        <mxCell id="qjGqlxLeWbetl0XT6fP5-485" value="" style="shape=note;whiteSpace=wrap;html=1;backgroundOutline=1;darkOpacity=0.05;rounded=1;size=20;strokeWidth=2;fontSize=20;" vertex="1" parent="qjGqlxLeWbetl0XT6fP5-484">
          <mxGeometry x="3.888888888888889" width="62.22222222222222" height="80" as="geometry" />
        </mxCell>
        <mxCell id="qjGqlxLeWbetl0XT6fP5-486" value="&lt;font style=&quot;font-size: 20px;&quot; data-font-src=&quot;https://fonts.googleapis.com/css?family=Maven+Pro&quot; face=&quot;Maven Pro&quot; color=&quot;#ffffff&quot;&gt;&lt;b style=&quot;font-size: 20px;&quot;&gt;&lt;font style=&quot;font-size: 20px;&quot;&gt;fasta&lt;/font&gt;&lt;/b&gt;&lt;/font&gt;" style="rounded=1;whiteSpace=wrap;html=1;strokeWidth=2;fillColor=#000000;fontSize=20;" vertex="1" parent="qjGqlxLeWbetl0XT6fP5-484">
          <mxGeometry y="32" width="70" height="32" as="geometry" />
        </mxCell>
        <mxCell id="qjGqlxLeWbetl0XT6fP5-488" value="&lt;div style=&quot;font-size: 18px;&quot;&gt;&lt;font style=&quot;font-size: 18px;&quot; data-font-src=&quot;https://fonts.googleapis.com/css?family=Maven+Pro&quot; face=&quot;Maven Pro&quot;&gt;Bovreposeq reference&lt;/font&gt;&lt;/div&gt;&lt;div style=&quot;font-size: 18px;&quot;&gt;&lt;font style=&quot;font-size: 18px;&quot; data-font-src=&quot;https://fonts.googleapis.com/css?family=Maven+Pro&quot; face=&quot;Maven Pro&quot;&gt;multi-fasta&lt;br style=&quot;font-size: 18px;&quot;&gt;&lt;/font&gt;&lt;/div&gt;" style="text;html=1;align=center;verticalAlign=middle;whiteSpace=wrap;rounded=0;fontSize=18;" vertex="1" parent="1">
          <mxGeometry x="110" y="35" width="200" height="30" as="geometry" />
        </mxCell>
        <mxCell id="qjGqlxLeWbetl0XT6fP5-493" value="z" style="edgeStyle=orthogonalEdgeStyle;rounded=1;orthogonalLoop=1;jettySize=auto;html=1;exitX=0.5;exitY=0;exitDx=0;exitDy=0;entryX=0.25;entryY=0;entryDx=0;entryDy=0;" edge="1" parent="1" source="qjGqlxLeWbetl0XT6fP5-263" target="qjGqlxLeWbetl0XT6fP5-263">
          <mxGeometry relative="1" as="geometry" />
        </mxCell>
      </root>
    </mxGraphModel>
  </diagram>
</mxfile>
